<svg xmlns="http://www.w3.org/2000/svg" width="1280" height="360" viewBox="0 0 1280 360">
<defs><style>
.bg{fill:#030810}.grid{stroke:#0d1f35;stroke-width:.8;fill:none}
.title{font-family:"Segoe UI",system-ui,sans-serif;font-weight:700;fill:#f0f6fc;letter-spacing:-.5px}
.sub{font-family:"Segoe UI",system-ui,sans-serif;fill:#8b949e}
.num{font-family:"Segoe UI",system-ui,sans-serif;font-weight:700;fill:#f0f6fc}
.lbl{font-family:"Segoe UI",system-ui,sans-serif;fill:#8b949e;font-size:11px}
.tag{font-family:"Consolas","Courier New",monospace;fill:#8b949e;font-size:10px}
.mono{font-family:"Consolas","Courier New",monospace;fill:#6ea8d7}
.dot-r{fill:#da3633}.dot-c{fill:#6ea8d7}
@keyframes sweep{0%{transform:translateY(-40px);opacity:0}15%{opacity:.7}85%{opacity:.7}100%{transform:translateY(300px);opacity:0}}
.scanline{animation:sweep 3.5s ease-in-out infinite}
@keyframes pulse{0%,100%{r:3;opacity:.9}50%{r:5.5;opacity:.4}}
@keyframes pulse2{0%,100%{r:2.5;opacity:.8}50%{r:4.5;opacity:.35}}
.p1{animation:pulse 2s ease-in-out infinite}
.p2{animation:pulse2 2.4s ease-in-out infinite .4s}
.p3{animation:pulse 2.8s ease-in-out infinite .8s}
.p4{animation:pulse2 2.2s ease-in-out infinite 1.2s}
.p5{animation:pulse 3s ease-in-out infinite .6s}
@keyframes fadein{from{opacity:0;transform:translateY(10px)}to{opacity:1;transform:translateY(0)}}
.s1{animation:fadein .6s ease both .1s}.s2{animation:fadein .6s ease both .4s}
.s3{animation:fadein .6s ease both .7s}.s4{animation:fadein .6s ease both 1s}
.s5{animation:fadein .6s ease both 1.3s}.s6{animation:fadein .6s ease both 1.6s}
@keyframes titlein{from{opacity:0;transform:translateX(-14px)}to{opacity:1;transform:translateX(0)}}
.ta{animation:titlein .7s ease both .05s}.tb{animation:titlein .7s ease both .25s}
.tc{animation:fadein .6s ease both .5s}
@keyframes blink{0%,100%{opacity:1}50%{opacity:0}}
.cursor{animation:blink 1s step-end infinite}
@keyframes arc{from{stroke-dashoffset:400}to{stroke-dashoffset:0}}
.a1{stroke-dasharray:400;animation:arc 2.2s ease both .3s}
.a2{stroke-dasharray:350;animation:arc 2.2s ease both .6s}
.a3{stroke-dasharray:300;animation:arc 2.2s ease both .9s}
.a4{stroke-dasharray:280;animation:arc 2.2s ease both .5s}
.a5{stroke-dasharray:260;animation:arc 2.2s ease both .8s}
.a6{stroke-dasharray:320;animation:arc 2.2s ease both 1.1s}
.a7{stroke-dasharray:290;animation:arc 2.2s ease both .4s}
@keyframes glw{0%,100%{filter:drop-shadow(0 0 6px #da3633)}50%{filter:drop-shadow(0 0 18px #da3633)}}
.origin{animation:glw 2.5s ease-in-out infinite}
</style>
<filter id="blur3"><feGaussianBlur stdDeviation="3"/></filter>
<filter id="blur6"><feGaussianBlur stdDeviation="6"/></filter>
<linearGradient id="sg" x1="0" x2="0" y1="0" y2="1"><stop offset="0" stop-color="#1a6aaa" stop-opacity="0"/><stop offset=".5" stop-color="#1a6aaa" stop-opacity=".55"/><stop offset="1" stop-color="#1a6aaa" stop-opacity="0"/></linearGradient>
<clipPath id="mc"><rect x="650" y="30" width="620" height="310"/></clipPath>
</defs>
<rect width="1280" height="360" class="bg"/>
<g class="grid"><line x1="0" y1="40" x2="1280" y2="40"/><line x1="0" y1="80" x2="1280" y2="80"/><line x1="0" y1="120" x2="1280" y2="120"/><line x1="0" y1="160" x2="1280" y2="160"/><line x1="0" y1="200" x2="1280" y2="200"/><line x1="0" y1="240" x2="1280" y2="240"/><line x1="0" y1="280" x2="1280" y2="280"/><line x1="0" y1="320" x2="1280" y2="320"/><line x1="80" y1="0" x2="80" y2="360"/><line x1="160" y1="0" x2="160" y2="360"/><line x1="240" y1="0" x2="240" y2="360"/><line x1="320" y1="0" x2="320" y2="360"/><line x1="400" y1="0" x2="400" y2="360"/><line x1="480" y1="0" x2="480" y2="360"/><line x1="560" y1="0" x2="560" y2="360"/><line x1="640" y1="0" x2="640" y2="360"/><line x1="720" y1="0" x2="720" y2="360"/><line x1="800" y1="0" x2="800" y2="360"/><line x1="880" y1="0" x2="880" y2="360"/><line x1="960" y1="0" x2="960" y2="360"/><line x1="1040" y1="0" x2="1040" y2="360"/><line x1="1120" y1="0" x2="1120" y2="360"/><line x1="1200" y1="0" x2="1200" y2="360"/></g>
<rect x="0" y="0" width="4" height="360" fill="#da3633"/>
<rect class="scanline" x="40" y="0" width="570" height="10" fill="url(#sg)" rx="3"/>
<line x1="645" y1="0" x2="645" y2="360" stroke="#162030" stroke-width="1.5"/>
<g clip-path="url(#mc)">
<ellipse cx="1050" cy="185" rx="45" ry="32" fill="#da3633" opacity=".2" filter="url(#blur6)"/>
<ellipse cx="1050" cy="185" rx="22" ry="16" fill="#da3633" opacity=".4" filter="url(#blur3)"/>
<path class="a1" fill="none" stroke="#da3633" stroke-width="1.5" d="M1050 185 Q940 90 820 140"/>
<path class="a2" fill="none" stroke="#da3633" stroke-width="1.3" d="M1050 185 Q890 60 760 130"/>
<path class="a3" fill="none" stroke="#ff5533" stroke-width="1" d="M1050 185 Q970 105 880 148"/>
<path class="a4" fill="none" stroke="#da3633" stroke-width="1.4" d="M1050 185 Q960 255 830 230"/>
<path class="a5" fill="none" stroke="#ff5533" stroke-width="1.1" d="M1050 185 Q990 270 920 258"/>
<path class="a6" fill="none" stroke="#da3633" stroke-width="1.2" d="M1050 185 Q870 120 740 160"/>
<path class="a7" fill="none" stroke="#ff7755" stroke-width="1" d="M1050 185 Q850 210 720 200"/>
<circle cx="1050" cy="185" r="5.5" fill="#da3633" class="p1 origin"/>
<circle cx="1050" cy="185" r="12" fill="none" stroke="#da3633" stroke-width="1" opacity=".35"/>
<circle cx="1050" cy="185" r="22" fill="none" stroke="#da3633" stroke-width=".6" opacity=".18"/>
<circle cx="820" cy="140" r="3.5" class="dot-r p2"/>
<circle cx="760" cy="130" r="3" class="dot-r p3"/>
<circle cx="880" cy="148" r="3" class="dot-r p4"/>
<circle cx="830" cy="230" r="3.5" class="dot-r p5"/>
<circle cx="920" cy="258" r="3" class="dot-r p2"/>
<circle cx="740" cy="160" r="2.5" class="dot-c p3"/>
<circle cx="720" cy="200" r="2.5" class="dot-c p4"/>
</g>
<text class="tag s1" x="665" y="34" font-size="10">THREAT VECTOR MAP · ORIGIN: CHINA (IANA #3765)</text>
<text class="sub s6" x="665" y="348" font-size="10">63,190 domains shielded by Cloudflare (83% of alive zone)</text>
<text class="tag ta" x="48" y="34" font-size="10">PHISHDESTROY RESEARCH · TLP:CLEAR · JUNE 2026</text>
<text class="title ta" x="48" y="92" font-size="36">NICENIC INTERNATIONAL</text>
<text class="title tb" x="48" y="132" font-size="36">GROUP CO., LIMITED</text>
<text class="sub tc" x="48" y="158" font-size="13">IANA Registrar ·3765 · China · Complete Zone Scan</text>
<rect x="48" y="168" width="530" height="1" fill="#162030" class="s1"/>
<g class="s2"><text class="num" x="48" y="205" font-size="30">343,107</text><text class="lbl" x="48" y="221">DOMAINS SCANNED</text></g>
<g class="s3"><text class="num" x="240" y="205" font-size="30">18,927</text><text class="lbl" x="240" y="221">MALICIOUS</text></g>
<g class="s4"><text class="num" x="400" y="205" font-size="30">48.4%</text><text class="lbl" x="400" y="221">OF ALIVE</text></g>
<g class="s4"><text class="num" x="510" y="205" font-size="30">2,939</text><text class="lbl" x="510" y="221">CLUSTERS</text></g>
<g class="s3"><text class="tag" x="48" y="246">PHISHING_BRAND</text><rect x="48" y="249" width="150" height="5" rx="2" fill="#da3633"/><text class="tag" x="210" y="254">7,036</text></g>
<g class="s4"><text class="tag" x="48" y="266">GAMBLING</text><rect x="48" y="269" width="128" height="5" rx="2" fill="#c0a060"/><text class="tag" x="210" y="274">6,177</text></g>
<g class="s5"><text class="tag" x="48" y="286">PHISHING_FINANCE</text><rect x="48" y="289" width="90" height="5" rx="2" fill="#ff4433"/><text class="tag" x="210" y="294">2,183</text></g>
<g class="s5"><text class="tag" x="48" y="306">CARDING</text><rect x="48" y="309" width="55" height="5" rx="2" fill="#ff3333"/><text class="tag" x="210" y="314">544</text></g>
<g class="s6"><text class="tag" x="48" y="326">MALWARE</text><rect x="48" y="329" width="40" height="5" rx="2" fill="#8b5cf6"/><text class="tag" x="210" y="334">387</text><text class="mono cursor" x="230" y="334" font-size="11">_</text></g>
<rect x="0" y="348" width="1280" height="12" fill="#060d18"/>
<text class="tag" x="48" y="358" font-size="9">domains_high.txt · indicators.csv · SHA256SUMS.txt.sig · ED25519 signed</text>
<text class="tag" x="1240" y="358" font-size="9" text-anchor="end">phishdestroy.github.io/nicenic-evidence</text>
</svg>